<?xml version="1.0" encoding="UTF-8"?>
<svg xmlns="http://www.w3.org/2000/svg" viewBox="0 0 411.02 99.21">
  <defs>
    <style>
      .cls-1 {
        fill: #fff;
      }

      .cls-2 {
        fill: #dc091a;
      }
    </style>
  </defs>
  <g id="Background">
    <rect class="cls-2" y=".11" width="411.02" height="99"/>
  </g>
  <g id="INSORGIAMO">
    <polygon class="cls-1" points="36.47 27.43 36.47 12.38 14.48 12.38 14.48 27.43 18.11 27.43 18.11 73.45 14.48 73.45 14.48 87.46 36.47 87.46 36.47 73.45 32.62 73.45 32.62 27.43 36.47 27.43"/>
    <polygon class="cls-1" points="65.47 12.39 65.47 27.43 69.32 27.43 69.32 64.59 57.76 53.69 57.76 27.43 57.76 12.38 40.07 12.38 40.07 27.43 43.93 27.43 43.93 73.45 40.07 73.45 40.07 87.46 57.76 87.46 57.76 73.45 57.76 73.39 57.76 73.45 69.32 85.65 69.32 87.46 83.15 87.46 83.15 73.45 83.15 27.43 83.15 27.38 83.15 12.39 65.47 12.39"/>
    <polygon class="cls-1" points="123.32 29.43 123.32 12.38 108.81 12.38 86.75 12.38 86.75 27.38 86.75 44.44 109.98 66.62 109.98 73.46 101.81 73.46 101.81 70.87 86.75 70.87 86.75 87.46 101.81 87.46 123.32 87.46 123.32 73.46 123.32 59.19 99.74 35.73 99.74 27.38 108.81 27.38 108.81 29.43 123.32 29.43"/>
    <path class="cls-1" d="m126.92,12.39v75.06h36.34V12.39h-36.34Zm23.35,61.06h-10.2V27.43h10.2v46.02Z"/>
    <path class="cls-1" d="m360.21,12.39v75.06h36.34V12.39h-36.34Zm23.35,61.06h-10.2V27.43h10.2v46.02Z"/>
    <path class="cls-1" d="m198.59,73.45l-6.6-15.66h8.44V12.39h-33.55v15.04h3.81v46.02h-3.82v14h16.33v-16.6l3.4,7.03h.01s0,9.57,0,9.57h16.08v-14h-4.1Zm-10.64-46.02v17.01h-4.76v-17.01h4.76Z"/>
    <polygon class="cls-1" points="206.3 12.37 206.3 27.39 206.3 27.44 206.3 73.47 206.3 87.47 240.53 87.47 240.53 73.76 240.53 73.47 240.53 59.34 240.53 44.45 224.89 44.45 224.89 59.34 228.46 59.34 228.46 73.47 218.54 73.47 218.54 27.44 228.51 27.44 228.51 35.54 240.53 35.54 240.53 27.44 240.53 12.37 206.3 12.37"/>
    <polygon class="cls-1" points="266.13 27.43 266.13 12.38 244.13 12.38 244.13 27.43 247.76 27.43 247.76 73.45 244.13 73.45 244.13 87.46 266.13 87.46 266.13 73.45 262.27 73.45 262.27 27.43 266.13 27.43"/>
    <path class="cls-1" d="m269.73,12.38v75.07h12.54v-19.58h9.3v19.58h12.47V12.38h-34.3Zm21.83,40.21h-9.3v-25.14h9.3v25.14Z"/>
    <polygon class="cls-1" points="356.6 27.43 356.6 12.39 340.51 12.39 340.51 27.43 340.51 52.6 332.18 60.68 323.96 52.6 323.96 27.45 323.96 12.38 307.63 12.38 307.63 27.45 311.49 27.45 311.49 73.45 307.63 73.45 307.63 87.46 323.96 87.46 323.96 73.45 332.75 81.36 340.51 73.45 340.51 87.46 356.6 87.46 356.6 73.45 352.98 73.45 352.98 27.43 356.6 27.43"/>
  </g>
</svg>